<svg width="36" height="50" viewBox="0 0 36 50" fill="none" xmlns="http://www.w3.org/2000/svg">
<path d="M30 33V6C30 4.3455 28.6545 3 27 3H9C7.3455 3 6 4.3455 6 6V33L18 26.142L30 33ZM9 15V6H27V27.8295L18 22.6875L9 27.8295V15Z" fill="black"/>
<path d="M23.1135 14.268C23.655 13.71 23.991 12.936 23.991 12.084C23.991 11.232 23.6565 10.4595 23.1135 9.9C22.8395 9.61445 22.5107 9.38715 22.1468 9.23173C21.7828 9.0763 21.3913 8.99596 20.9955 8.9955C20.9955 8.9955 19.5015 8.991 18 10.539C16.4985 8.991 15.0045 8.9955 15.0045 8.9955C14.1765 8.9955 13.428 9.3405 12.8865 9.9C12.3435 10.4595 12.009 11.2305 12.009 12.084C12.009 12.9375 12.3435 13.71 12.8865 14.268L18 19.8045L23.1135 14.268Z" fill="black"/>
<path d="M5.24414 39.2129C5.24414 39.6686 5.23275 40.0967 5.20996 40.4971C5.18717 40.8942 5.13021 41.3353 5.03906 41.8203L3.81836 41.7031C3.94206 41.0228 4.01042 40.3457 4.02344 39.6719H0.673828V38.6562H5.24414V39.2129ZM3.03711 42.4111C4.04622 42.3656 4.92188 42.2891 5.66406 42.1816L5.73242 43.0801C4.91536 43.2298 4.06413 43.3291 3.17871 43.3779C2.29329 43.4268 1.31836 43.4544 0.253906 43.4609L0.146484 42.4648C0.852865 42.4648 1.40299 42.46 1.79688 42.4502V40.707H3.03711V42.4111ZM7.42188 40.7168H8.49609V41.7617H7.42188V44.6621H6.14258V38.0117H7.42188V40.7168ZM7.69531 46.7422H1.45508V44.0664H2.70508V45.7461H7.69531V46.7422ZM16.3477 43.0312H15.0977V38.0215H16.3477V43.0312ZM16.3477 46.8008H10.3906V43.4414H16.3477V46.8008ZM11.6211 45.8047H15.127V44.4277H11.6211V45.8047ZM12.3145 39.2031C12.3112 39.5742 12.3844 39.9274 12.5342 40.2627C12.6872 40.5947 12.9183 40.891 13.2275 41.1514C13.54 41.4118 13.929 41.6152 14.3945 41.7617L13.7891 42.709C13.2943 42.5625 12.8678 42.3444 12.5098 42.0547C12.1549 41.7617 11.875 41.4118 11.6699 41.0049C11.4616 41.4476 11.1735 41.8301 10.8057 42.1523C10.4378 42.4746 9.99674 42.7155 9.48242 42.875L8.87695 41.8984C9.35221 41.7552 9.74935 41.5452 10.0684 41.2686C10.3906 40.9886 10.6283 40.6712 10.7812 40.3164C10.9375 39.9583 11.0156 39.5872 11.0156 39.2031V38.3438H12.3145V39.2031ZM20.0293 38.4902C20.3776 38.4902 20.7031 38.5505 21.0059 38.6709C21.3086 38.7913 21.5674 38.9622 21.7822 39.1836H23.7988V38.0117H25.0391V43.2168H23.7988V42.1523H21.7725C21.5576 42.3704 21.2972 42.5397 20.9912 42.6602C20.6885 42.7773 20.3613 42.8359 20.0098 42.8359C19.5703 42.8359 19.1715 42.7415 18.8135 42.5527C18.4554 42.3639 18.1738 42.1051 17.9688 41.7764C17.7637 41.4443 17.6628 41.0749 17.666 40.668C17.6628 40.2513 17.7637 39.8786 17.9688 39.5498C18.1738 39.2178 18.457 38.959 18.8184 38.7734C19.1797 38.5846 19.5833 38.4902 20.0293 38.4902ZM20.0293 39.5547C19.7982 39.5547 19.5915 39.5986 19.4092 39.6865C19.2301 39.7744 19.0902 39.903 18.9893 40.0723C18.8916 40.2415 18.8444 40.4401 18.8477 40.668C18.8444 40.8926 18.8932 41.0895 18.9941 41.2588C19.0951 41.4281 19.235 41.5583 19.4141 41.6494C19.5931 41.7406 19.7982 41.7845 20.0293 41.7812C20.2539 41.7845 20.4541 41.7406 20.6299 41.6494C20.8057 41.5583 20.9424 41.4281 21.04 41.2588C21.141 41.0895 21.1914 40.8926 21.1914 40.668C21.1914 40.4401 21.141 40.2415 21.04 40.0723C20.9424 39.903 20.8057 39.7744 20.6299 39.6865C20.4541 39.5986 20.2539 39.5547 20.0293 39.5547ZM22.002 43.4023C22.627 43.4023 23.1689 43.4723 23.6279 43.6123C24.0902 43.749 24.445 43.9492 24.6924 44.2129C24.9398 44.4733 25.0651 44.7858 25.0684 45.1504C25.0651 45.515 24.9398 45.8275 24.6924 46.0879C24.445 46.3516 24.0902 46.5518 23.6279 46.6885C23.1689 46.8285 22.627 46.8984 22.002 46.8984C21.377 46.8984 20.835 46.8285 20.376 46.6885C19.917 46.5518 19.5638 46.3516 19.3164 46.0879C19.069 45.8275 18.9453 45.515 18.9453 45.1504C18.9453 44.7858 19.069 44.4733 19.3164 44.2129C19.5638 43.9492 19.917 43.749 20.376 43.6123C20.835 43.4723 21.377 43.4023 22.002 43.4023ZM22.002 44.3496C21.4062 44.3496 20.9505 44.4163 20.6348 44.5498C20.3223 44.6833 20.166 44.8835 20.166 45.1504C20.166 45.4076 20.3223 45.6029 20.6348 45.7363C20.9505 45.8665 21.4062 45.9316 22.002 45.9316C22.6042 45.9316 23.0615 45.8665 23.374 45.7363C23.6898 45.6029 23.8477 45.4076 23.8477 45.1504C23.8477 44.8835 23.6914 44.6833 23.3789 44.5498C23.0664 44.4163 22.6074 44.3496 22.002 44.3496ZM22.3193 40.1699C22.3551 40.3327 22.373 40.4987 22.373 40.668C22.373 40.8307 22.3551 40.9935 22.3193 41.1562H23.7988V40.1699H22.3193ZM33.3008 41.625H34.4629V42.6602H33.3008V46.8984H32.041V38.0117H33.3008V41.625ZM26.084 44.3887C27.0215 44.3887 27.7539 44.3822 28.2812 44.3691V43.6074C27.9655 43.5456 27.6904 43.4398 27.4561 43.29C27.2217 43.1403 27.041 42.9548 26.9141 42.7334C26.7871 42.512 26.7253 42.2663 26.7285 41.9961C26.7253 41.6673 26.8148 41.3776 26.9971 41.127C27.1826 40.873 27.4414 40.6761 27.7734 40.5361C28.1055 40.3962 28.4863 40.3262 28.916 40.3262C29.3359 40.3262 29.7103 40.3962 30.0391 40.5361C30.3711 40.6761 30.6299 40.873 30.8154 41.127C31.0042 41.3776 31.1003 41.6673 31.1035 41.9961C31.1003 42.2663 31.0335 42.5137 30.9033 42.7383C30.7731 42.9596 30.5892 43.1452 30.3516 43.2949C30.1172 43.4447 29.8438 43.5488 29.5312 43.6074V44.3252C30.3223 44.2829 31.0124 44.2194 31.6016 44.1348L31.6797 45.043C30.8431 45.1992 29.9935 45.2985 29.1309 45.3408C28.2682 45.3831 27.3079 45.4043 26.25 45.4043L26.084 44.3887ZM31.5332 39.9746H26.2598V38.998H28.2812V38.0605H29.5312V38.998H31.5332V39.9746ZM28.916 41.2734C28.6068 41.2734 28.361 41.3385 28.1787 41.4688C27.9964 41.5957 27.9069 41.7715 27.9102 41.9961C27.9069 42.2272 27.9964 42.4062 28.1787 42.5332C28.361 42.6569 28.6068 42.7188 28.916 42.7188C29.2155 42.7188 29.4548 42.6569 29.6338 42.5332C29.8128 42.4062 29.9023 42.2272 29.9023 41.9961C29.9023 41.7715 29.8128 41.5957 29.6338 41.4688C29.4548 41.3385 29.2155 41.2734 28.916 41.2734Z" fill="#666666" fill-opacity="0.49"/>
</svg>
